<?xml version="1.0" standalone="no"?>
<!DOCTYPE svg PUBLIC "-//W3C//DTD SVG 20010904//EN"
 "http://www.w3.org/TR/2001/REC-SVG-20010904/DTD/svg10.dtd">
<svg version="1.0" xmlns="http://www.w3.org/2000/svg"
 width="480.000000pt" height="477.000000pt" viewBox="0 0 480.000000 477.000000"
 preserveAspectRatio="xMidYMid meet">

<g transform="translate(0.000000,477.000000) scale(0.100000,-0.100000)"
fill="#000000" stroke="none">
<path d="M788 4500 c-35 -10 -70 -35 -61 -44 4 -4 0 -4 -10 -1 -19 8 -37 -27
-37 -71 0 -28 48 -94 68 -94 6 0 12 -7 12 -15 0 -7 8 -18 17 -24 20 -11 21
-10 -27 -32 -69 -31 -106 -42 -158 -46 -38 -4 -56 -10 -66 -25 -14 -20 -14
-20 -27 3 -9 18 -9 24 0 27 30 10 59 57 65 104 8 54 5 61 -57 132 l-34 39
-194 2 c-151 2 -198 -1 -214 -11 -11 -8 -30 -14 -42 -14 l-23 0 0 -1360 0
-1360 40 0 c22 0 40 4 40 9 0 18 108 32 227 30 65 -1 130 2 144 5 15 4 45 2
68 -4 40 -11 47 -22 42 -67 -2 -11 65 -30 74 -21 3 2 -9 19 -26 36 -27 27 -30
37 -25 65 8 43 45 78 82 77 16 0 103 -2 194 -3 148 -2 170 -5 211 -25 25 -12
51 -22 57 -22 7 0 12 -4 12 -10 0 -5 -5 -10 -10 -10 -6 0 -9 -3 -9 -7 4 -22
-3 -33 -20 -33 -11 0 -22 -4 -26 -9 -3 -5 -18 -12 -34 -16 -15 -3 -59 -19 -98
-34 -43 -18 -100 -32 -147 -36 -55 -5 -76 -11 -76 -21 0 -10 13 -14 40 -14 23
0 40 5 40 11 0 8 27 10 93 5 213 -15 286 -23 299 -33 7 -5 22 -13 33 -15 11
-3 28 -9 38 -13 14 -6 17 -2 17 19 0 22 4 26 29 26 16 0 36 6 43 13 7 8 31 16
52 20 21 3 46 13 55 21 9 8 37 17 63 21 38 6 56 3 85 -12 l38 -20 0 60 c-1 52
-4 62 -28 83 -27 23 -37 64 -16 64 6 0 9 9 6 19 -5 19 7 22 31 8 7 -5 12 -3
12 7 0 9 -5 16 -12 16 -6 0 -9 2 -6 5 14 15 34 -8 30 -34 -2 -16 1 -32 7 -35
6 -4 11 0 11 9 0 9 4 14 10 10 5 -3 7 -12 4 -20 -3 -8 4 -28 15 -44 12 -16 21
-35 21 -42 0 -7 3 -9 7 -6 9 9 32 -24 33 -46 0 -10 4 -15 10 -12 5 3 10 -1 10
-9 0 -9 7 -16 16 -16 8 0 13 -4 10 -9 -4 -5 -3 -11 1 -13 5 -1 25 -24 46 -50
21 -26 45 -54 53 -63 11 -10 12 -15 3 -15 -8 0 -7 -6 4 -18 10 -10 17 -23 17
-28 0 -5 9 -16 20 -24 11 -8 20 -20 20 -27 0 -6 6 -16 14 -20 18 -10 23 -62 8
-90 -11 -20 -10 -21 23 -18 32 3 35 1 35 -23 0 -15 -4 -33 -9 -41 -5 -8 -7
-20 -4 -27 6 -17 75 -36 97 -28 9 3 16 1 16 -5 0 -6 -9 -11 -20 -11 -11 0 -20
-5 -20 -11 0 -6 9 -9 20 -6 25 6 27 -8 3 -18 -17 -7 -16 -8 2 -15 11 -5 37 -9
58 -9 26 -1 37 -5 37 -16 0 -19 11 -19 36 0 26 19 90 20 98 0 3 -8 10 -15 16
-15 5 0 10 7 10 15 0 23 26 18 55 -11 18 -18 34 -25 50 -21 17 3 26 -1 30 -13
14 -45 187 -69 198 -28 6 22 -13 85 -35 118 -24 37 -21 80 6 81 11 1 2 5 -21
11 -49 11 -55 24 -15 33 18 4 28 13 29 25 1 16 -5 20 -33 20 -35 0 -46 13 -18
24 9 3 27 6 40 6 14 0 23 4 20 9 -7 11 17 21 50 21 14 0 23 4 20 8 -3 5 13 9
34 10 22 1 61 12 87 24 41 20 44 24 25 26 -22 3 -22 5 9 21 18 10 35 24 37 31
3 7 0 10 -7 6 -24 -15 -9 7 34 50 25 24 45 47 45 50 0 9 61 86 87 109 13 11
23 27 23 35 1 20 25 51 33 43 4 -3 7 1 7 11 0 9 7 19 15 22 8 4 15 17 15 31 0
13 4 22 9 19 9 -6 24 30 22 51 -1 7 7 25 18 40 18 26 51 130 56 178 7 69 19
125 27 125 5 0 7 8 3 19 -4 14 0 20 17 24 40 10 340 29 364 23 13 -4 115 -6
226 -7 148 0 221 -4 269 -16 64 -15 69 -15 133 7 73 24 92 22 166 -13 35 -17
65 -22 130 -23 47 0 97 3 113 9 l27 9 0 153 0 152 -62 6 c-35 3 -160 3 -278 1
-118 -3 -222 -6 -230 -6 -8 1 -70 7 -137 16 -85 10 -132 12 -157 5 -19 -5
-101 -11 -183 -12 -81 -2 -155 -7 -165 -11 -11 -5 -17 -2 -20 9 -2 13 -12 4
-36 -29 -20 -27 -41 -46 -52 -46 -14 0 -18 5 -13 16 5 14 3 15 -17 4 -15 -8
-20 -8 -16 -1 4 6 2 11 -3 11 -6 0 -11 16 -11 36 0 21 -4 33 -10 29 -5 -3 -10
-2 -10 4 0 5 4 13 10 16 6 3 10 2 10 -4 0 -12 28 -41 41 -41 5 0 9 9 9 19 0
10 7 22 16 25 16 6 16 8 0 24 -9 10 -16 24 -16 30 0 25 -38 12 -45 -15 l-7
-28 -19 24 c-10 13 -22 41 -25 62 -4 22 -10 39 -14 39 -13 0 -33 -62 -31 -95
1 -17 -2 -50 -8 -75 -7 -31 -7 -47 1 -51 7 -4 7 -9 0 -13 -6 -3 -8 -15 -5 -26
3 -11 1 -20 -4 -20 -9 0 -8 -91 1 -116 3 -8 0 -11 -10 -7 -7 3 -14 9 -14 15 0
5 -5 6 -11 2 -8 -5 -8 -8 0 -14 7 -3 9 -14 5 -23 -3 -9 -10 -14 -15 -11 -14 8
-11 -3 11 -38 22 -37 25 -48 10 -48 -5 0 -10 6 -10 14 0 15 -45 30 -60 21 -5
-3 -6 -13 -3 -22 4 -10 2 -14 -4 -10 -6 4 -13 2 -15 -3 -2 -6 -20 -13 -41 -17
l-37 -6 0 41 c0 22 -4 44 -10 47 -5 3 -10 17 -10 30 0 23 -12 43 -47 80 -16
16 -17 35 -3 35 6 0 10 7 10 16 0 11 -6 14 -20 9 -22 -7 -28 10 -7 19 8 3 7 8
-5 16 -31 19 -21 39 20 42 32 3 37 7 40 31 2 15 9 27 15 27 7 0 4 5 -5 11 -23
13 -24 44 -2 35 9 -3 18 -6 20 -6 2 0 4 -12 4 -27 1 -24 2 -25 11 -10 7 12 6
23 -5 39 -18 25 -22 63 -6 53 6 -4 7 1 3 11 -4 11 -8 13 -11 6 -2 -7 -10 -12
-18 -12 -12 0 -12 4 2 25 10 15 26 25 40 25 13 0 24 5 24 12 0 6 9 3 21 -8 21
-19 21 -19 19 6 -2 14 0 33 5 43 4 9 4 34 -1 55 -4 20 -6 43 -5 50 5 33 -9 5
-30 -58 -13 -39 -30 -76 -38 -83 -13 -10 -14 -10 -5 3 20 26 54 139 54 176 0
23 7 42 18 51 9 8 11 12 5 8 -7 -3 -13 -2 -13 4 0 5 12 12 28 16 15 3 36 20
47 38 33 52 51 47 58 -15 5 -37 12 -57 27 -67 11 -7 20 -22 20 -33 0 -10 4
-17 9 -14 5 3 7 16 4 29 -5 18 -3 20 7 10 11 -10 11 -18 2 -38 -16 -35 -15
-75 3 -118 17 -41 20 -87 5 -87 -13 0 -13 -40 0 -60 9 -14 11 -10 35 58 2 6
15 12 28 12 15 0 28 9 35 23 6 12 11 16 11 9 1 -7 -6 -24 -15 -37 -13 -20 -14
-28 -4 -40 15 -18 50 -20 50 -2 0 6 7 93 16 193 l17 181 -23 46 c-20 39 -28
47 -61 52 -21 4 -43 4 -49 0 -8 -5 -16 30 -11 58 22 138 25 194 15 312 -8 104
-10 119 -22 148 -7 16 -12 34 -12 41 0 6 -5 17 -12 24 -7 7 -8 12 -4 12 4 0
-4 20 -18 44 -14 25 -26 52 -26 60 0 9 -3 16 -7 16 -11 0 -43 58 -43 76 0 8
-4 14 -10 14 -5 0 -10 6 -10 13 0 6 -15 29 -34 49 l-34 36 -21 -26 c-11 -14
-21 -21 -21 -15 0 6 7 19 16 27 11 12 13 20 5 33 -6 10 -11 12 -11 6 0 -18
-20 -16 -20 1 0 16 -34 31 -50 21 -5 -3 -10 2 -11 12 0 11 -3 13 -6 5 -2 -6
-9 -10 -13 -7 -5 3 -7 12 -3 20 4 11 1 13 -13 8 -10 -4 -15 -2 -11 3 3 6 -9
11 -26 12 -30 3 -30 2 -13 -11 18 -13 16 -14 -22 -10 -23 2 -54 10 -69 18 -16
8 -33 15 -39 15 -7 0 -24 6 -39 14 -15 8 -35 12 -44 9 -13 -4 -13 -2 2 10 20
17 8 31 -17 21 -35 -13 -13 8 27 27 31 14 35 18 14 14 -19 -4 -26 -2 -22 5 3
5 13 10 21 10 8 0 13 4 9 9 -3 6 3 15 12 21 15 10 14 11 -9 7 -34 -5 -36 0 -5
13 22 10 22 10 -3 9 -14 -1 -27 0 -30 1 -6 3 -34 8 -68 12 -21 2 -22 3 -6 15
10 7 15 16 11 19 -9 10 -37 -16 -38 -35 0 -9 -6 -1 -13 18 -12 33 -36 54 -36
32 0 -6 5 -11 10 -11 6 0 10 -4 10 -10 0 -5 -11 -10 -25 -10 -19 0 -25 -5 -25
-21 0 -11 -5 -17 -10 -14 -6 4 -8 10 -5 15 3 5 0 12 -6 16 -7 4 -9 3 -6 -2 3
-5 -2 -27 -12 -49 -13 -30 -19 -36 -24 -23 -3 10 -2 20 3 23 13 8 13 52 0 60
-5 3 -10 -1 -10 -9 0 -8 -5 -18 -11 -21 -6 -4 -9 2 -8 17 4 47 -1 79 -12 73
-6 -4 -8 -14 -5 -22 3 -8 1 -11 -4 -8 -20 12 -50 14 -56 3 -5 -7 0 -9 12 -6
11 3 25 -1 32 -9 7 -7 17 -11 23 -8 5 4 9 2 9 -4 0 -17 -38 -33 -57 -23 -10 5
-36 12 -58 16 l-40 6 28 -15 c39 -22 33 -26 -14 -10 -46 16 -90 20 -51 5 12
-5 22 -12 22 -14 0 -3 -7 -2 -17 1 -11 4 -14 3 -9 -5 4 -7 2 -12 -4 -12 -6 0
-13 7 -16 15 -4 8 -16 15 -28 15 -17 -1 -14 -5 16 -23 21 -12 38 -28 38 -36 0
-9 -11 -5 -33 11 -28 22 -59 34 -114 44 -7 1 -13 -2 -13 -7 0 -5 -12 -9 -26
-9 -14 0 -23 4 -19 10 8 13 -65 13 -85 0 -10 -7 -4 -8 20 -4 30 5 39 1 60 -23
20 -21 24 -34 19 -53 -6 -23 -7 -23 -8 -3 -1 22 -18 40 -28 29 -3 -3 0 -12 7
-21 9 -11 9 -15 1 -15 -6 0 -21 16 -32 35 -12 19 -23 35 -25 35 -8 0 9 -55 21
-70 6 -8 16 -22 20 -30 7 -12 5 -12 -11 1 -10 9 -24 15 -30 12 -13 -4 -27 24
-18 38 7 12 -5 49 -16 49 -4 0 -11 -16 -14 -35 -4 -20 -11 -33 -16 -30 -4 3
-6 -4 -3 -15 4 -14 0 -20 -12 -20 -12 0 -16 6 -12 19 2 10 1 25 -4 32 -9 14
-14 -13 -11 -56 2 -16 0 -17 -8 -5 -5 8 -10 25 -10 37 0 30 -11 34 -32 11 -10
-10 -13 -18 -7 -18 8 0 8 -5 -1 -15 -7 -8 -18 -15 -25 -15 -8 0 -10 -9 -7 -26
4 -21 2 -25 -9 -20 -8 4 -3 -2 11 -14 14 -12 19 -19 13 -15 -19 9 -88 -6 -71
-16 10 -7 8 -9 -7 -10 -11 -1 -25 -1 -31 0 -6 1 -26 -6 -45 -14 l-34 -15 38 6
c24 4 37 2 37 -5 0 -8 13 -9 40 -5 25 4 40 3 40 -4 0 -5 -8 -9 -17 -8 -10 0
-17 -4 -16 -10 1 -7 -10 -11 -30 -10 -18 1 -52 -1 -77 -4 -37 -6 -39 -7 -13
-8 17 -1 34 -6 38 -11 3 -6 20 -7 38 -4 31 5 56 6 266 16 72 4 98 9 106 21 16
21 44 20 61 -1 12 -16 15 -16 24 -3 9 13 13 12 28 -8 15 -20 25 -23 55 -18 20
3 37 2 37 -2 0 -4 48 -7 108 -6 137 2 132 1 132 21 0 15 2 15 14 -2 11 -16 17
-17 29 -7 12 10 16 10 20 0 4 -8 6 -7 6 5 1 9 8 18 16 18 25 2 29 4 55 21 14
8 37 18 52 22 20 5 26 10 21 23 -5 14 -1 13 24 -5 17 -12 36 -22 41 -22 6 0
14 -4 17 -10 4 -6 -1 -7 -11 -3 -13 5 -16 3 -11 -10 3 -8 1 -18 -6 -21 -7 -2
-3 -5 9 -5 12 -1 38 -12 58 -26 20 -14 45 -25 54 -25 9 0 24 -4 32 -10 9 -6
17 -5 22 3 7 11 13 -13 9 -37 -1 -5 5 -6 14 -3 9 4 15 1 15 -8 0 -8 7 -15 15
-15 9 0 18 -7 21 -15 4 -8 11 -12 17 -8 6 4 8 -2 5 -15 -4 -13 -2 -20 6 -19 6
1 10 -8 8 -22 -3 -18 0 -22 12 -18 12 5 16 0 16 -18 0 -16 6 -25 16 -25 13 0
15 -7 10 -31 -3 -17 -6 -35 -6 -40 0 -14 -38 -11 -43 4 -4 7 -6 8 -6 1 -1 -15
19 -31 43 -35 19 -4 43 -59 26 -59 -17 0 -4 -76 16 -95 12 -11 25 -37 28 -57
4 -21 12 -43 19 -50 7 -7 13 -24 13 -38 1 -14 3 -67 6 -117 3 -69 1 -94 -9
-97 -7 -3 -16 1 -20 9 -5 7 -21 15 -38 18 -28 4 -29 5 -7 12 27 9 29 25 2 25
-16 0 -20 7 -21 33 -2 55 -13 81 -39 87 -31 7 -38 42 -16 75 21 31 20 35 -4
35 -19 0 -20 6 -17 124 2 121 1 124 -23 145 -14 11 -31 20 -37 21 -7 0 -13 4
-13 9 0 5 6 12 13 14 7 3 5 6 -5 6 -10 1 -18 8 -18 16 0 8 -4 15 -10 15 -5 0
-10 -13 -10 -30 0 -35 -29 -42 -37 -9 -4 12 -11 18 -20 15 -8 -3 -20 -6 -26
-6 -7 0 -19 -13 -28 -28 -9 -16 -22 -29 -30 -29 -8 -1 -30 -7 -49 -14 -19 -8
-36 -14 -37 -14 -1 0 -4 -12 -8 -27 -7 -27 -7 -27 67 -34 40 -5 63 -10 51 -12
-28 -4 -29 -10 -5 -28 16 -13 16 -15 -2 -29 -21 -16 -15 -45 9 -45 8 0 15 -4
15 -8 0 -12 -46 -32 -71 -32 -16 0 -19 -5 -14 -20 5 -16 2 -20 -14 -20 -12 0
-21 -6 -21 -12 0 -10 -3 -9 -9 1 -6 9 -10 10 -16 2 -4 -7 -1 -18 5 -26 6 -8 8
-20 4 -26 -5 -9 -2 -10 10 -6 14 6 17 3 12 -9 -3 -8 -6 -17 -6 -19 0 -9 -76
10 -88 22 -17 16 -34 8 -30 -15 2 -13 -4 -17 -29 -16 -21 1 -30 -2 -27 -11 7
-16 -19 -36 -53 -39 -19 -3 -27 -9 -25 -19 1 -9 -2 -18 -8 -22 -6 -4 -10 5
-10 20 0 15 -4 24 -10 20 -5 -3 -10 -15 -10 -25 0 -14 -6 -18 -27 -15 -16 2
-35 -4 -45 -12 -11 -9 -18 -11 -23 -4 -8 13 -42 14 -47 2 -4 -12 -109 15 -119
30 -4 6 -9 1 -13 -14 -3 -14 -12 -27 -20 -30 -10 -4 -13 -1 -9 9 4 10 -2 14
-21 14 -23 0 -25 -3 -20 -29 3 -16 2 -31 -4 -34 -5 -4 -8 5 -6 21 2 15 1 21
-2 15 -8 -18 -27 -16 -20 2 10 26 -12 16 -34 -15 -14 -20 -29 -30 -43 -29 -41
4 -57 -1 -57 -16 0 -8 -8 -15 -17 -15 -17 -1 -17 -1 -1 -14 15 -11 5 -13 -70
-16 -48 -2 -99 -3 -114 -4 -16 -1 -28 -5 -28 -10 0 -5 29 -6 65 -4 36 3 65 2
65 -2 0 -4 -30 -10 -67 -13 -38 -4 -117 -22 -177 -42 -60 -19 -117 -35 -126
-35 -24 0 -168 153 -187 198 -15 36 -21 93 -26 237 -2 77 21 235 34 235 5 0 6
6 3 14 -3 7 1 30 10 49 9 22 11 37 5 39 -6 2 -1 15 10 29 11 15 18 29 14 33
-3 3 2 15 12 26 18 20 18 21 0 14 -15 -6 -13 -1 9 29 15 20 25 41 21 47 -3 5
1 10 9 10 10 0 13 6 10 15 -4 8 1 17 10 21 15 6 15 7 0 18 -14 11 -11 16 21
43 20 18 34 36 31 42 -3 5 -1 11 4 13 21 7 -11 65 -53 99 -45 36 -183 109
-206 109 -16 0 -113 42 -246 106 -93 44 -170 59 -227 44z m1709 -156 c-3 -3
-12 -4 -19 -1 -8 3 -5 6 6 6 11 1 17 -2 13 -5z m44 -67 c-10 -9 -11 -8 -5 6 3
10 9 15 12 12 3 -3 0 -11 -7 -18z m-2306 -57 c3 -5 1 -10 -4 -10 -6 0 -11 5
-11 10 0 6 2 10 4 10 3 0 8 -4 11 -10z m2065 -55 c14 -19 14 -19 -2 -6 -10 7
-18 18 -18 24 0 6 1 8 3 6 1 -2 9 -13 17 -24z m611 -3 c-13 -2 -27 0 -32 5 -6
6 3 7 23 4 28 -4 29 -6 9 -9z m-1041 -6 c0 -3 -4 -8 -10 -11 -5 -3 -10 -1 -10
4 0 6 5 11 10 11 6 0 10 -2 10 -4z m1066 -8 c30 -1 54 -5 54 -9 0 -5 8 -9 17
-9 14 0 14 -3 5 -12 -10 -10 -14 -10 -20 -1 -6 10 -17 10 -42 3 -43 -12 -53
-13 -45 -1 3 5 -5 11 -17 13 -12 2 -23 9 -26 17 -3 9 0 11 7 6 7 -4 37 -7 67
-7z m-213 -23 c-3 -9 -8 -14 -10 -11 -3 3 -2 9 2 15 9 16 15 13 8 -4z m-53
-15 c0 -13 -5 -18 -15 -14 -12 5 -13 10 -4 20 15 19 19 18 19 -6z m-545 -20
c-3 -5 -10 -10 -16 -10 -5 0 -9 5 -9 10 0 6 7 10 16 10 8 0 12 -4 9 -10z m815
0 c-20 -13 -43 -13 -35 0 3 6 16 10 28 10 18 0 19 -2 7 -10z m160 -349 c0 -5
-7 -14 -16 -22 -12 -10 -17 -10 -23 -1 -4 7 -15 10 -24 6 -9 -3 -17 -4 -17 0
0 3 15 10 33 15 43 12 47 13 47 2z m-210 -11 c10 -6 11 -10 3 -10 -7 0 -13 -7
-13 -15 0 -17 -16 -20 -25 -5 -3 6 1 13 10 16 13 6 14 8 3 15 -7 5 -8 9 -3 9
6 0 17 -5 25 -10z m40 -40 c0 -5 -9 -10 -21 -10 -11 0 -17 5 -14 10 3 6 13 10
21 10 8 0 14 -4 14 -10z m-10 -240 l20 -40 -22 0 c-58 0 -102 36 -58 47 11 3
20 12 20 19 0 27 20 14 40 -26z m-40 -50 c0 -5 -4 -10 -10 -10 -5 0 -10 5 -10
10 0 6 5 10 10 10 6 0 10 -4 10 -10z m87 -57 c-3 -10 -5 -2 -5 17 0 19 2 27 5
18 2 -10 2 -26 0 -35z m-217 2 c-7 -8 -17 -15 -23 -15 -5 0 -2 9 8 20 21 23
35 19 15 -5z m370 -50 c0 -8 -6 -15 -14 -15 -17 0 -28 14 -19 24 12 12 33 6
33 -9z m-2546 -26 c21 -10 23 -15 15 -30 -5 -11 -16 -19 -24 -19 -17 0 -39 36
-30 50 8 12 9 12 39 -1z m2777 -98 c-35 -26 -71 -48 -80 -47 -9 0 -15 -5 -13
-11 1 -7 -3 -13 -9 -13 -6 0 -8 7 -5 17 4 9 1 20 -6 25 -10 7 -9 9 2 5 8 -2
46 14 85 35 38 21 74 38 79 38 5 0 -19 -22 -53 -49z m-1306 9 c-3 -5 -11 -10
-16 -10 -6 0 -7 5 -4 10 3 6 11 10 16 10 6 0 7 -4 4 -10z m-675 -20 c6 -11 8
-20 6 -20 -3 0 -10 9 -16 20 -6 11 -8 20 -6 20 3 0 10 -9 16 -20z m2150 -29
c0 -5 -7 -12 -16 -15 -14 -5 -15 -4 -4 9 14 17 20 19 20 6z m-2100 -34 c25
-46 115 -135 140 -139 19 -2 26 -14 40 -63 9 -33 29 -84 44 -114 30 -59 111
-151 132 -151 8 0 14 -4 14 -10 0 -5 7 -10 15 -10 9 0 12 -6 9 -15 -4 -8 1
-17 9 -21 9 -3 13 -13 10 -22 -3 -13 -2 -14 4 -4 5 7 17 10 26 7 8 -4 25 -2
36 5 15 8 21 8 21 0 0 -6 7 -4 16 5 13 12 19 13 24 4 5 -8 17 -9 36 -4 39 12
104 13 110 3 3 -4 -1 -8 -8 -8 -8 0 -19 -5 -25 -11 -7 -7 -36 -20 -64 -30 -44
-16 -58 -17 -86 -7 -28 10 -36 10 -50 -5 -10 -10 -18 -25 -18 -35 0 -9 -6 -16
-12 -14 -7 1 -13 -5 -13 -13 0 -9 -9 -15 -25 -15 -14 0 -29 -8 -35 -21 -6 -11
-21 -24 -33 -28 -18 -7 -21 -16 -22 -74 -1 -37 1 -67 4 -67 4 0 7 -9 7 -19 0
-11 -4 -17 -8 -15 -8 5 -12 -11 -9 -30 1 -4 -4 -15 -11 -24 -11 -13 -11 -14 1
-8 10 7 12 3 6 -14 -5 -15 -4 -20 4 -16 6 4 11 3 11 -3 0 -5 -5 -13 -11 -17
-6 -3 -9 -16 -7 -29 3 -12 -1 -31 -9 -41 -12 -16 -13 -13 -14 27 l-1 44 -9
-44 c-5 -24 -6 -48 -3 -52 3 -5 2 -14 -2 -21 -5 -8 -10 -6 -15 8 -6 16 -8 16
-8 2 -1 -9 4 -20 9 -23 6 -3 10 -16 10 -27 l0 -22 -20 22 c-11 12 -20 28 -20
37 0 23 -36 85 -45 77 -5 -4 -6 0 -2 10 3 9 0 24 -7 34 -7 9 -11 26 -8 36 3
14 0 17 -12 12 -11 -4 -16 -1 -16 10 0 9 5 16 10 16 6 0 10 5 10 11 0 5 -5 7
-11 3 -8 -5 -10 1 -7 20 3 16 0 33 -8 40 -7 7 -15 42 -18 77 -2 35 -5 66 -5
68 -1 2 -8 1 -16 -3 -11 -4 -15 1 -15 19 0 30 -26 34 -35 5 -8 -25 -21 -25
-62 0 -38 23 -46 37 -62 113 -7 31 -16 57 -20 57 -5 0 -9 25 -10 56 0 31 -3
59 -5 62 -10 17 -37 296 -32 327 9 47 50 78 93 70 29 -5 33 -3 33 15 0 30 30
22 50 -13z m1780 23 c0 -5 -6 -10 -14 -10 -8 0 -18 5 -21 10 -3 6 3 10 14 10
12 0 21 -4 21 -10z m-600 -25 c-33 -19 -50 -18 -26 0 11 8 27 15 35 15 10 -1
7 -6 -9 -15z m-803 -30 c-26 -7 -60 -21 -75 -30 -25 -16 -26 -16 -11 -1 18 20
84 45 114 45 11 -1 -2 -7 -28 -14z m1298 -5 c3 -5 1 -10 -4 -10 -6 0 -11 5
-11 10 0 6 2 10 4 10 3 0 8 -4 11 -10z m-795 -14 c0 -11 -19 -15 -25 -6 -3 5
1 10 9 10 9 0 16 -2 16 -4z m817 -32 c-9 -9 -28 6 -21 18 4 6 10 6 17 -1 6 -6
8 -13 4 -17z m388 -99 c4 -33 9 -63 11 -67 3 -5 0 -8 -5 -8 -6 0 -12 15 -12
33 -1 17 -3 41 -5 52 -2 11 -6 43 -8 70 -4 44 -4 46 4 15 5 -19 12 -62 15 -95z
m-27 25 c0 -13 0 -13 -5 0 -7 17 -33 45 -33 35 0 -3 -6 -3 -12 1 -9 6 -5 10
12 14 25 6 38 -10 38 -50z m-351 -7 c-3 -10 -5 -4 -5 12 0 17 2 24 5 18 2 -7
2 -21 0 -30z m-1410 -41 c17 -12 41 -22 53 -22 11 0 18 -4 15 -10 -3 -5 0 -10
7 -10 10 0 9 -3 -2 -11 -13 -9 -12 -10 3 -5 20 6 47 -2 47 -16 0 -5 -5 -6 -12
-2 -7 4 -8 3 -4 -4 4 -6 22 -14 41 -18 19 -3 35 -12 35 -19 0 -9 9 -12 26 -9
14 3 23 1 20 -4 -3 -5 6 -9 19 -9 14 0 25 3 25 8 0 5 7 9 15 9 8 0 15 4 15 9
0 10 30 24 37 17 3 -2 -1 -14 -7 -26 -11 -21 -10 -22 22 -14 18 4 43 8 54 9
32 4 67 37 51 48 -8 6 -6 7 7 3 10 -4 25 -1 32 5 11 9 14 8 14 -2 0 -28 -13
-59 -21 -53 -5 3 -6 -1 -3 -9 7 -19 -60 -93 -112 -123 -78 -46 -201 -41 -307
11 -54 27 -97 68 -97 92 0 7 -5 13 -11 13 -5 0 -7 5 -4 10 3 6 2 10 -2 10 -5
0 -9 8 -10 18 -15 160 -15 168 4 146 10 -11 32 -31 50 -42z m691 -4 c7 -7 12
-20 12 -29 0 -10 6 -20 13 -22 6 -3 3 -6 -8 -6 -17 -1 -18 -3 -5 -11 11 -8 12
-12 3 -18 -10 -6 -8 -12 5 -24 53 -48 88 -127 62 -143 -17 -11 -11 -39 16 -69
22 -25 29 -28 45 -18 16 10 21 10 25 -3 4 -10 14 -13 29 -9 17 4 26 0 35 -16
15 -29 9 -33 -31 -21 -25 6 -28 9 -12 10 12 1 25 5 28 11 4 6 -11 8 -37 6 -24
-2 -51 0 -60 5 -10 6 -18 6 -18 1 0 -4 -8 -8 -17 -9 -56 -5 -143 -37 -143 -52
0 -10 -64 -7 -97 3 -12 4 -24 3 -27 -3 -3 -5 -16 -7 -28 -3 -13 3 -19 1 -15
-5 4 -6 1 -16 -7 -22 -10 -8 -16 -5 -25 15 -13 29 2 95 26 115 17 15 18 55 1
42 -7 -6 -21 -13 -31 -16 -18 -7 17 35 84 102 25 25 47 59 91 144 28 52 61 70
86 45z m606 -183 c-29 -22 -42 -17 -15 6 13 11 26 17 29 14 3 -3 -3 -12 -14
-20z m-454 -204 c0 -5 8 -12 18 -14 14 -4 14 -5 1 -6 -9 0 -22 6 -29 14 -9 10
-9 15 -1 15 6 0 11 -4 11 -9z m-359 -108 c7 -16 14 -39 14 -53 1 -22 -4 -25
-32 -25 -17 0 -35 4 -39 8 -4 4 -3 7 3 7 5 0 10 16 11 35 2 61 20 72 43 28z
m1099 -83 c0 -5 -4 -10 -10 -10 -5 0 -10 5 -10 10 0 6 5 10 10 10 6 0 10 -4
10 -10z m-1080 -22 c0 -6 2 -9 5 -6 7 7 55 -34 49 -43 -2 -3 -31 -9 -65 -13
-52 -6 -63 -5 -75 11 -12 17 -13 17 -14 1 0 -10 -4 -18 -9 -18 -5 0 -8 6 -7
13 3 23 17 36 31 31 8 -4 18 1 21 10 3 9 10 14 14 11 5 -3 11 -1 15 5 9 14 35
13 35 -2z m1050 -77 c0 -14 -18 -23 -31 -15 -8 4 -7 9 2 15 18 11 29 11 29 0z
m-988 -112 c22 -9 26 -14 16 -20 -7 -5 -22 -9 -33 -9 -11 0 -26 -9 -33 -21
-10 -16 -19 -19 -41 -14 -19 4 -32 1 -41 -10 -16 -19 -6 -32 13 -17 7 6 22 9
34 6 14 -4 26 2 40 19 16 21 22 23 36 12 22 -16 21 -27 -2 -42 -14 -9 -21 -9
-23 -1 -3 8 -9 6 -18 -4 -11 -12 -19 -13 -32 -5 -25 16 -33 1 -14 -28 9 -14
14 -30 11 -36 -4 -5 7 -15 24 -22 20 -7 29 -17 26 -25 -4 -10 0 -12 12 -6 10
4 41 8 68 8 28 1 56 5 63 9 8 5 12 3 12 -7 0 -11 9 -16 29 -16 33 0 43 -11 46
-51 3 -33 -37 -73 -66 -66 -10 3 -19 1 -19 -4 0 -5 -7 -9 -15 -9 -8 0 -15 -7
-15 -15 0 -9 -10 -15 -26 -15 -14 0 -23 -4 -19 -10 3 -5 0 -10 -7 -10 -9 0 -9
-3 -2 -8 8 -5 6 -12 -6 -25 -16 -16 -18 -16 -38 1 -12 11 -19 22 -17 26 3 3 2
3 -3 0 -4 -3 -7 -10 -7 -15 0 -5 -4 -9 -10 -8 -5 1 -9 5 -7 11 1 5 -2 7 -7 4
-5 -4 -14 2 -20 11 -9 15 -12 15 -20 4 -7 -11 -11 -10 -21 5 -9 16 -11 16 -6
2 3 -10 1 -20 -5 -24 -6 -3 -8 -12 -5 -20 3 -7 1 -16 -4 -19 -6 -4 -10 -11
-10 -17 0 -6 6 -6 15 2 9 7 14 19 11 27 -3 8 -1 11 4 8 6 -3 10 -2 10 3 0 6 9
8 20 5 25 -7 21 -28 -6 -28 -12 0 -19 -7 -19 -20 0 -14 -6 -19 -18 -17 -10 2
-26 -3 -35 -10 -11 -9 -14 -10 -8 -1 4 7 9 21 11 32 3 14 -1 18 -16 14 -10 -3
-19 -10 -19 -15 0 -5 -4 -7 -10 -3 -10 6 -3 35 8 33 16 -2 23 3 17 12 -3 5
-15 6 -28 1 -21 -8 -23 -7 -19 21 3 16 11 32 18 35 8 3 14 12 14 21 0 14 -2
13 -13 -2 -7 -9 -19 -18 -27 -20 -8 -1 -25 -7 -37 -14 -19 -11 -22 -10 -17 3
4 8 11 15 18 15 18 0 87 60 81 71 -4 5 0 9 7 9 8 0 6 5 -4 11 -19 11 -25 39
-8 39 5 0 9 -3 7 -7 -1 -5 3 -10 8 -12 6 -3 11 3 13 12 2 10 -6 21 -20 26 -19
7 -20 10 -7 15 25 10 12 56 -15 56 -20 -1 -20 -2 -3 -14 21 -16 22 -26 2 -26
-8 0 -17 11 -21 25 -3 14 -11 25 -18 25 -6 0 -5 4 3 9 8 5 11 16 8 24 -7 18
38 51 55 41 8 -5 9 -2 5 10 -5 13 0 18 23 23 23 4 28 9 20 18 -22 27 100 46
152 24z m458 0 c0 -6 -9 -13 -20 -16 -23 -6 -26 -19 -7 -26 7 -3 5 -6 -6 -6
-10 -1 -21 7 -24 17 -4 9 -11 21 -17 25 -7 5 -2 7 11 4 13 -3 26 -1 29 4 7 13
34 11 34 -2z m-84 -35 c-3 -8 1 -14 10 -14 8 0 12 -4 9 -10 -3 -5 -22 -10 -41
-10 -19 0 -34 -4 -34 -10 0 -5 -9 -10 -20 -10 -13 0 -20 7 -20 20 0 11 -6 20
-12 21 -23 1 52 24 83 25 21 1 29 -3 25 -12z m389 -44 c3 -5 1 -10 -4 -10 -6
0 -11 5 -11 10 0 6 2 10 4 10 3 0 8 -4 11 -10z m-1354 -67 c8 -9 9 -14 2 -10
-6 4 -13 1 -16 -5 -3 -7 -4 -3 -4 10 1 26 1 26 18 5z m1017 -8 c-11 -25 -28
-25 -28 0 0 12 13 22 32 24 4 1 3 -10 -4 -24z m-968 1 c0 -3 -4 -8 -10 -11 -5
-3 -10 -1 -10 4 0 6 5 11 10 11 6 0 10 -2 10 -4z m1000 -35 c0 -5 -7 -11 -15
-15 -15 -5 -20 5 -8 17 9 10 23 9 23 -2z m-695 -31 c-3 -5 -11 -10 -16 -10 -6
0 -7 5 -4 10 3 6 11 10 16 10 6 0 7 -4 4 -10z m-94 -77 c-12 -20 -14 -14 -5
12 4 9 9 14 11 11 3 -2 0 -13 -6 -23z m-491 -4 c0 -14 -17 -10 -23 5 -4 10 -1
13 9 9 7 -3 14 -9 14 -14z m575 11 c-3 -5 -14 -10 -23 -9 -14 0 -13 2 3 9 27
11 27 11 20 0z m29 -15 c-8 -19 -39 -37 -48 -28 -4 4 3 15 16 25 28 22 39 23
32 3z m-114 -49 c0 -3 -4 -8 -10 -11 -5 -3 -10 -1 -10 4 0 6 5 11 10 11 6 0
10 -2 10 -4z m75 -56 c3 -5 1 -10 -4 -10 -6 0 -11 5 -11 10 0 6 2 10 4 10 3 0
8 -4 11 -10z m355 1 c0 -6 -4 -13 -10 -16 -5 -3 -10 1 -10 9 0 9 5 16 10 16 6
0 10 -4 10 -9z m-134 -58 c-10 -10 -19 5 -10 18 6 11 8 11 12 0 2 -7 1 -15 -2
-18z m57 -13 c-3 -11 -9 -20 -15 -20 -5 0 -4 9 2 20 6 11 12 20 14 20 2 0 2
-9 -1 -20z m57 10 c0 -5 -4 -10 -10 -10 -5 0 -10 5 -10 10 0 6 5 10 10 10 6 0
10 -4 10 -10z m-279 -33 c-10 -9 -11 -8 -5 6 3 10 9 15 12 12 3 -3 0 -11 -7
-18z m120 -20 c-10 -9 -11 -8 -5 6 3 10 9 15 12 12 3 -3 0 -11 -7 -18z"/>
<path d="M1280 3005 c-24 -28 6 -245 31 -229 5 3 9 16 9 29 0 13 5 48 11 77
11 48 13 51 21 29 5 -14 6 -32 2 -40 -10 -26 -12 -111 -2 -111 5 0 7 -4 4 -9
-4 -5 3 -30 14 -55 20 -48 50 -63 50 -25 0 11 5 30 11 41 17 31 12 130 -6 144
-8 6 -15 16 -15 23 0 8 -5 9 -19 2 -15 -8 -20 -7 -24 8 -3 13 0 18 8 15 7 -3
16 0 20 6 14 22 -6 61 -45 85 -46 29 -53 30 -70 10z"/>
<path d="M2038 2723 c7 -3 16 -2 19 1 4 3 -2 6 -13 5 -11 0 -14 -3 -6 -6z"/>
<path d="M2425 1850 c3 -5 10 -10 16 -10 5 0 9 5 9 10 0 6 -7 10 -16 10 -8 0
-12 -4 -9 -10z"/>
<path d="M2110 1817 c0 -7 12 -14 26 -15 22 -2 24 0 10 13 -18 18 -36 19 -36
2z"/>
<path d="M2110 1770 c0 -5 4 -10 9 -10 6 0 13 5 16 10 3 6 -1 10 -9 10 -9 0
-16 -4 -16 -10z"/>
<path d="M2360 1770 c-8 -5 -12 -12 -9 -15 4 -3 12 1 19 10 14 17 11 19 -10 5z"/>
<path d="M2079 1703 c-13 -16 -12 -17 4 -4 16 13 21 21 13 21 -2 0 -10 -8 -17
-17z"/>
<path d="M2345 4499 c-4 -6 -13 -8 -21 -5 -8 3 -14 1 -14 -3 0 -5 -10 -7 -22
-4 -23 5 -23 5 -3 -12 l20 -17 -20 8 c-34 12 -119 12 -186 -1 -52 -11 -57 -13
-29 -15 19 -1 29 -4 21 -7 -29 -12 10 -18 74 -13 37 3 70 1 75 -4 7 -7 10 -5
10 5 0 11 12 14 48 13 28 -1 46 -5 45 -12 -3 -11 15 -10 52 3 l20 8 -20 -17
c-18 -16 -18 -17 -2 -12 10 3 26 6 35 6 10 0 13 3 7 8 -5 4 -11 16 -12 27 -1
11 0 15 3 8 3 -7 12 -9 20 -6 12 4 12 7 -3 18 -9 7 -23 11 -30 8 -7 -3 -24 2
-38 11 -16 10 -26 12 -30 5z"/>
<path d="M2470 4472 c0 -12 19 -26 26 -19 2 2 -2 10 -11 17 -9 8 -15 8 -15 2z"/>
<path d="M2573 4442 c12 -12 25 -18 35 -14 13 5 14 6 1 10 -7 3 -23 9 -34 15
-20 10 -20 9 -2 -11z"/>
<path d="M2546 4432 c-3 -6 -1 -14 5 -17 15 -10 25 3 12 16 -7 7 -13 7 -17 1z"/>
<path d="M2288 4418 c6 -6 18 -8 28 -6 14 3 12 5 -9 10 -19 3 -25 2 -19 -4z"/>
<path d="M2690 4420 c0 -5 5 -10 11 -10 5 0 7 5 4 10 -3 6 -8 10 -11 10 -2 0
-4 -4 -4 -10z"/>
<path d="M2600 4410 c0 -5 10 -10 23 -10 18 0 19 2 7 10 -19 13 -30 13 -30 0z"/>
<path d="M2078 4403 c6 -2 18 -2 25 0 6 3 1 5 -13 5 -14 0 -19 -2 -12 -5z"/>
<path d="M1980 4371 c0 -5 7 -11 15 -15 8 -3 15 -1 15 3 0 5 -7 11 -15 15 -8
3 -15 1 -15 -3z"/>
<path d="M3072 4359 c-31 -12 -28 -14 23 -15 24 0 42 2 40 6 -8 13 -40 17 -63
9z"/>
<path d="M1820 4350 c-8 -5 -10 -10 -5 -10 6 0 17 5 25 10 8 5 11 10 5 10 -5
0 -17 -5 -25 -10z"/>
<path d="M1977 4330 c3 -11 7 -20 9 -20 2 0 4 9 4 20 0 11 -4 20 -9 20 -5 0
-7 -9 -4 -20z"/>
<path d="M1760 4260 c8 -5 20 -10 25 -10 6 0 3 5 -5 10 -8 5 -19 10 -25 10 -5
0 -3 -5 5 -10z"/>
<path d="M2885 4220 c-3 -5 -5 -10 -3 -11 27 -7 45 -6 60 2 11 6 18 6 18 0 0
-15 41 -24 52 -13 8 8 5 9 -9 6 -11 -3 -25 1 -32 10 -15 18 -76 22 -86 6z"/>
<path d="M1715 4200 c-16 -7 -17 -9 -3 -9 9 -1 20 4 23 9 7 11 7 11 -20 0z"/>
<path d="M2940 4185 c7 -8 17 -12 22 -9 6 4 5 10 -3 15 -22 14 -33 10 -19 -6z"/>
<path d="M3148 4183 c7 -3 16 -2 19 1 4 3 -2 6 -13 5 -11 0 -14 -3 -6 -6z"/>
<path d="M3150 4156 c0 -2 7 -9 15 -16 13 -11 14 -10 9 4 -5 14 -24 23 -24 12z"/>
<path d="M1605 4100 c-3 -5 0 -10 7 -10 10 0 9 -3 -2 -11 -12 -8 -10 -9 8 -4
16 5 22 2 22 -9 0 -9 5 -16 11 -16 5 0 7 5 4 10 -3 6 1 13 9 16 22 8 8 27 -15
21 -11 -3 -17 -1 -13 4 3 5 -2 9 -10 9 -8 0 -18 -4 -21 -10z"/>
<path d="M2815 4090 c4 -6 11 -8 16 -5 14 9 11 15 -7 15 -8 0 -12 -5 -9 -10z"/>
<path d="M1515 4081 c-3 -5 -2 -12 3 -15 5 -3 9 1 9 9 0 17 -3 19 -12 6z"/>
<path d="M1527 4018 c-10 -17 -15 -33 -13 -36 3 -3 8 3 12 12 3 9 12 16 20 16
16 0 18 9 6 27 -5 8 -13 1 -25 -19z"/>
<path d="M1705 4020 c-3 -5 -18 -11 -33 -11 -21 -1 -22 -3 -6 -6 11 -2 33 3
50 12 18 9 23 15 12 15 -9 0 -20 -4 -23 -10z"/>
<path d="M1455 3900 c-16 -7 -17 -9 -3 -9 9 -1 20 4 23 9 7 11 7 11 -20 0z"/>
<path d="M3098 3813 c7 -3 16 -2 19 1 4 3 -2 6 -13 5 -11 0 -14 -3 -6 -6z"/>
<path d="M2585 3350 c-3 -5 1 -10 9 -10 9 0 16 5 16 10 0 6 -4 10 -9 10 -6 0
-13 -4 -16 -10z"/>
<path d="M2010 3220 c0 -5 5 -10 10 -10 6 0 10 5 10 10 0 6 -4 10 -10 10 -5 0
-10 -4 -10 -10z"/>
<path d="M1410 3195 c0 -5 5 -17 10 -25 5 -8 10 -10 10 -5 0 6 -5 17 -10 25
-5 8 -10 11 -10 5z"/>
<path d="M1668 3093 c7 -3 16 -2 19 1 4 3 -2 6 -13 5 -11 0 -14 -3 -6 -6z"/>
<path d="M4158 3057 c-16 -6 -28 -13 -28 -16 1 -16 100 -71 127 -71 51 0 93
69 54 89 -25 14 -117 12 -153 -2z"/>
<path d="M3938 2044 c-15 -15 -14 -20 11 -63 15 -25 33 -59 41 -75 17 -32 16
-32 117 -77 66 -29 78 -31 135 -25 95 11 145 7 199 -15 74 -29 79 -27 79 30
l0 48 -42 8 c-24 4 -54 9 -68 10 -14 2 -54 17 -90 34 -36 17 -74 31 -85 31
-12 0 -39 9 -60 20 -50 25 -146 60 -167 60 -9 0 -21 7 -28 15 -16 19 -22 19
-42 -1z"/>
<path d="M4737 1720 c-38 -42 -52 -51 -83 -52 -24 -1 -41 4 -49 15 -13 18 -45
23 -45 8 0 -4 -30 -11 -67 -15 -251 -24 -256 -26 -256 -94 0 -39 -1 -41 -42
-52 -43 -12 -53 -11 -250 30 -22 5 -47 4 -57 -1 -9 -5 -27 -9 -40 -9 -18 0
-20 2 -8 10 12 8 11 10 -6 10 -12 0 -35 7 -50 15 -36 19 -74 19 -99 2 -23 -18
-13 -34 28 -46 18 -5 88 -31 157 -56 69 -26 177 -64 241 -85 65 -21 157 -58
206 -83 l88 -44 30 23 c33 25 112 42 245 54 131 11 120 -9 120 221 0 112 -4
199 -9 199 -5 0 -29 -23 -54 -50z"/>
<path d="M3280 1644 c0 -7 7 -25 15 -40 9 -17 11 -30 5 -32 -6 -2 -10 -8 -10
-13 0 -6 5 -7 11 -3 12 7 29 -12 29 -33 0 -7 -6 -12 -12 -10 -8 1 -12 -6 -10
-18 5 -35 1 -208 -5 -218 -3 -5 -7 -26 -10 -46 -6 -56 -71 -292 -82 -301 -10
-8 -61 -78 -61 -84 0 -3 -23 -38 -51 -77 -40 -57 -48 -74 -37 -81 10 -7 9 -8
-5 -4 -13 4 -26 -6 -49 -39 -18 -25 -36 -45 -41 -45 -5 0 -7 -6 -4 -14 4 -9
-14 -22 -54 -40 -32 -14 -63 -26 -69 -26 -5 0 -17 -11 -26 -25 -11 -17 -29
-26 -62 -31 -26 -4 -41 -9 -34 -11 6 -3 12 -12 11 -21 0 -13 -2 -14 -6 -3 -4
10 -9 8 -19 -10 -11 -20 -13 -21 -14 -5 0 15 -5 17 -27 10 -16 -4 -53 -10 -83
-13 -45 -5 -55 -9 -53 -24 1 -15 -4 -17 -22 -13 -14 3 -27 1 -31 -6 -4 -6 -3
-8 4 -5 5 4 21 3 34 -2 15 -6 -9 -8 -73 -6 -89 2 -159 16 -185 36 -6 5 -55 24
-110 43 -54 19 -121 44 -147 55 -55 24 -61 25 -52 11 3 -5 1 -10 -4 -10 -6 0
-11 7 -11 16 0 8 -4 13 -9 9 -5 -3 -12 -1 -16 5 -4 6 -10 8 -15 5 -4 -3 -28 6
-52 20 -23 14 -48 25 -55 25 -6 0 -43 18 -82 40 -39 22 -77 40 -86 40 -8 0
-15 4 -15 9 0 9 -32 24 -55 26 -5 0 -9 7 -7 14 2 8 -3 11 -11 8 -7 -3 -22 6
-32 19 -10 13 -27 24 -38 24 -11 0 -17 3 -14 7 4 3 -4 12 -18 20 -14 7 -37 20
-52 28 -16 8 -24 15 -19 15 5 0 3 7 -4 15 -7 8 -17 12 -22 9 -6 -4 -63 48
-128 114 -65 66 -121 118 -124 115 -3 -3 6 -14 19 -25 14 -11 25 -25 25 -33 0
-7 5 -15 12 -17 6 -2 -14 -21 -45 -42 -55 -36 -73 -54 -42 -42 13 4 14 2 5
-14 -9 -17 -7 -22 16 -30 15 -6 29 -8 32 -5 3 3 0 5 -7 5 -7 0 -10 4 -6 10 3
5 13 7 23 4 13 -5 14 -4 3 4 -10 7 -11 14 -2 31 13 23 25 29 18 9 -2 -7 4 -25
14 -39 15 -22 25 -26 59 -24 39 2 40 2 24 -16 -20 -23 -49 -26 -41 -4 5 11 1
12 -20 4 -15 -5 -32 -8 -40 -5 -7 3 -13 -1 -13 -9 0 -8 -10 -20 -23 -26 -22
-12 -22 -12 -3 10 17 19 17 21 3 21 -10 0 -17 -4 -17 -10 0 -5 -18 -15 -40
-21 -22 -7 -40 -15 -40 -20 0 -4 -7 -9 -14 -12 -10 -4 -13 -1 -9 9 3 7 0 14
-6 14 -6 0 -11 -4 -11 -9 0 -4 -11 -6 -25 -3 -18 3 -25 0 -25 -11 0 -9 -10
-23 -22 -33 -14 -10 -16 -14 -6 -11 9 3 19 -1 22 -9 3 -8 2 -13 -3 -10 -5 3
-12 -1 -15 -9 -3 -8 -9 -14 -13 -13 -17 5 -52 -23 -47 -37 4 -8 1 -15 -5 -15
-6 0 -11 4 -11 9 0 7 -19 8 -52 2 -5 0 -8 -8 -8 -17 0 -10 5 -12 13 -7 22 14
45 13 51 -3 4 -10 -1 -18 -13 -21 -13 -3 -17 -11 -14 -24 3 -11 0 -19 -6 -19
-7 0 -9 5 -5 12 5 8 2 9 -9 5 -25 -9 -21 9 5 27 12 9 18 16 12 16 -18 0 -56
-38 -50 -49 6 -10 -70 -5 -88 6 -5 3 -6 1 -2 -6 9 -14 -38 -54 -66 -56 -10 -1
-23 5 -28 14 -5 9 -10 12 -10 6 -1 -5 -3 -23 -5 -40 -2 -16 1 -35 7 -42 7 -9
7 -13 -1 -13 -6 0 -11 5 -11 10 0 6 -4 10 -10 10 -5 0 -7 -6 -4 -14 3 -8 1
-17 -5 -21 -7 -4 -11 4 -11 19 0 14 5 26 11 26 8 0 7 5 -1 16 -12 13 -16 12
-37 -10 -13 -14 -23 -29 -23 -33 1 -4 12 6 26 22 16 18 24 23 20 12 -3 -10 -6
-25 -6 -33 0 -8 -8 -14 -17 -15 -11 0 -13 -3 -5 -6 6 -2 12 -11 12 -19 0 -12
4 -13 22 -3 12 6 31 20 42 31 12 11 22 14 24 8 3 -7 9 -7 20 2 12 10 12 7 -2
-14 -10 -15 -23 -25 -28 -22 -12 7 -58 -15 -74 -35 -8 -10 -13 -11 -18 -3 -4
7 -5 16 -1 21 3 5 1 12 -5 16 -5 3 -10 0 -10 -7 0 -7 -12 -23 -28 -36 l-27
-23 28 17 c29 17 33 14 17 -16 -8 -15 -6 -17 13 -13 12 3 28 10 34 16 9 6 13
6 13 -2 0 -6 5 -10 11 -9 6 2 13 -5 14 -14 4 -22 -4 -23 -19 -2 -14 18 -50 8
-42 -12 3 -7 0 -16 -6 -20 -6 -4 -8 -3 -5 3 4 6 0 13 -8 17 -20 7 -25 -5 -20
-45 2 -18 -1 -40 -8 -47 -10 -13 -8 -14 11 -8 29 9 28 2 -2 -17 -23 -15 -24
-15 -24 11 0 15 5 36 10 46 8 15 6 22 -8 33 -17 12 -17 14 2 28 30 23 6 18
-27 -6 -16 -11 -36 -18 -44 -15 -8 3 -14 2 -13 -2 1 -4 -4 -18 -12 -32 -12
-22 -12 -24 2 -13 19 16 28 7 29 -31 0 -17 3 -25 6 -18 2 6 12 12 21 13 11 0
12 2 5 6 -7 2 -13 9 -13 15 0 5 -7 17 -16 26 -15 14 -15 16 4 23 26 10 64 0
59 -15 -2 -6 -13 -10 -23 -8 -11 2 -15 -1 -9 -5 16 -12 12 -41 -8 -60 -17 -17
-19 -17 -31 0 -18 23 -29 22 -21 -3 13 -42 -43 -85 -59 -45 -3 8 -11 15 -18
14 -10 0 -10 -2 0 -6 18 -7 -16 -32 -44 -33 -14 0 -20 -6 -20 -20 1 -10 -3
-20 -9 -21 -7 -1 -55 -57 -55 -63 0 -1 18 -2 40 -4 32 -2 38 0 34 13 -4 8 -1
15 5 15 6 0 11 -7 11 -15 0 -13 263 -15 2305 -15 l2305 0 0 396 0 396 -34 57
c-46 74 -278 311 -306 311 -11 0 -28 9 -37 19 -9 11 -22 17 -29 14 -8 -3 -14
1 -14 10 0 28 -90 78 -142 79 -25 0 -38 5 -38 14 0 9 -13 15 -35 16 -56 2 -60
3 -66 11 -3 5 -29 9 -57 10 -34 1 -52 6 -52 15 0 6 -4 12 -10 12 -5 0 -10 -7
-10 -16 0 -10 -7 -14 -22 -12 -17 2 -23 10 -23 28 0 24 -27 46 -50 41 -38 -10
-79 -1 -104 23 -15 14 -34 26 -42 26 -8 0 -49 17 -90 39 -58 29 -86 38 -118
36 -29 -2 -41 1 -37 10 2 7 -7 12 -26 12 -16 0 -33 4 -36 9 -9 12 -63 47 -66
42 -2 -2 4 -19 12 -38 8 -19 16 -45 16 -58 3 -45 -11 -31 -29 28 -16 54 -74
141 -75 114z m70 -181 c0 -7 -4 -13 -10 -13 -5 0 -10 12 -10 28 0 21 2 24 10
12 5 -8 10 -21 10 -27z m974 -358 c-7 -27 -8 -27 -21 -9 -12 16 -11 20 3 31
23 17 27 12 18 -22z m158 5 c-1 -14 -7 -26 -12 -28 -6 -2 -10 -12 -10 -23 0
-21 -26 -25 -50 -8 -12 8 -10 9 7 4 18 -5 22 -3 17 9 -6 14 -24 21 -47 17 -5
-1 -6 3 -2 9 3 5 1 10 -4 10 -6 0 -11 5 -11 11 0 6 8 9 18 7 9 -2 16 -10 15
-16 -2 -7 4 -12 12 -12 9 0 15 10 15 26 0 22 4 25 28 22 22 -2 27 -7 24 -28z
m-3321 -167 c-12 -8 -19 -8 -29 0 -11 8 -16 7 -23 -6 -11 -19 -39 -23 -39 -5
0 6 3 9 6 5 3 -3 20 7 37 23 29 27 32 28 47 12 15 -15 15 -18 1 -29z m39 -14
c0 -5 -4 -7 -10 -4 -5 3 -7 0 -4 -8 3 -8 -2 -20 -11 -27 -14 -12 -18 -11 -26
1 -5 8 -9 17 -9 22 0 12 18 8 24 -5 3 -7 3 -3 0 10 -4 17 -1 22 15 22 12 0 21
-5 21 -11z m-125 -39 c-3 -5 -11 -10 -16 -10 -6 0 -7 5 -4 10 3 6 11 10 16 10
6 0 7 -4 4 -10z m208 -55 c-3 -9 -8 -14 -10 -11 -3 3 -2 9 2 15 9 16 15 13 8
-4z m-23 -10 c0 -8 -7 -15 -15 -15 -16 0 -20 12 -8 23 11 12 23 8 23 -8z m43
-12 c-7 -18 -22 -33 -35 -33 -6 0 33 49 39 50 1 0 -1 -8 -4 -17z m33 -27 c9
-9 10 -17 4 -21 -5 -3 -10 -1 -10 5 0 6 -4 8 -10 5 -5 -3 -10 1 -10 9 0 20 7
20 26 2z m-306 0 c0 -3 -4 -8 -10 -11 -5 -3 -10 -1 -10 4 0 6 5 11 10 11 6 0
10 -2 10 -4z m137 -28 c-3 -8 -6 -5 -6 6 -1 11 2 17 5 13 3 -3 4 -12 1 -19z
m3043 12 c0 -5 -4 -10 -10 -10 -5 0 -10 5 -10 10 0 6 5 10 10 10 6 0 10 -4 10
-10z m-2990 -25 c0 -12 -19 -12 -23 0 -4 9 -1 12 9 8 7 -3 14 -7 14 -8z m105
5 c4 -6 -1 -7 -11 -3 -12 4 -15 2 -12 -8 8 -23 39 -23 45 0 3 12 10 21 15 21
5 0 6 -4 3 -10 -3 -6 4 -10 17 -10 18 0 20 -2 8 -10 -8 -5 -11 -10 -6 -10 5 0
3 -6 -3 -14 -14 -17 0 -29 23 -20 9 3 16 1 16 -5 0 -16 -35 -14 -49 3 -6 7 -9
22 -5 32 5 17 4 17 -8 4 -19 -21 -37 -23 -54 -5 -17 16 -39 21 -30 6 4 -5 -3
-7 -14 -4 -29 8 -25 19 13 31 43 13 45 14 52 2z m-365 -25 c0 -2 -10 -9 -22
-15 -22 -11 -22 -10 -4 4 21 17 26 19 26 11z m-99 -66 c-12 -12 -25 -18 -29
-14 -4 4 4 15 17 26 31 25 41 15 12 -12z m316 15 c16 -3 21 -9 16 -22 -4 -13
-1 -12 16 6 27 27 31 27 31 2 0 -12 -9 -24 -22 -29 -18 -7 -27 -4 -41 12 -11
13 -17 16 -14 7 2 -8 -4 -24 -14 -34 -11 -11 -19 -14 -19 -8 0 8 -9 10 -25 6
-17 -4 -25 -2 -25 7 0 7 -8 2 -17 -11 -10 -14 -18 -28 -18 -32 0 -20 -15 -17
-16 3 0 13 -2 38 -4 54 -4 27 -1 31 23 33 23 1 24 0 10 -9 -10 -5 -18 -16 -18
-24 0 -12 4 -12 20 2 11 10 20 25 20 33 0 16 35 17 97 4z m-253 -14 c-6 -6
-21 -12 -34 -15 -26 -5 -21 2 12 20 26 13 37 10 22 -5z m82 -7 c8 -12 9 -22 3
-30 -7 -7 -6 -13 1 -18 5 -3 10 -11 10 -17 0 -7 -6 -6 -15 2 -13 10 -15 9 -15
-9 0 -12 6 -21 15 -21 8 0 15 -4 15 -10 0 -5 -6 -10 -14 -10 -7 0 -16 -9 -19
-21 -5 -20 -5 -20 13 -4 18 16 20 16 26 1 3 -9 10 -13 16 -10 5 3 4 11 -3 20
-7 9 -8 14 -1 14 6 0 18 8 28 17 18 18 48 28 38 12 -3 -5 2 -9 10 -9 10 0 13
6 9 17 -5 11 -3 14 6 8 8 -4 17 -2 22 6 7 11 9 10 9 -3 0 -23 3 -23 50 8 26
17 40 34 40 48 0 17 2 18 10 6 9 -13 11 -13 20 0 7 12 12 12 22 2 9 -9 9 -12
-5 -12 -9 0 -17 -4 -17 -9 0 -5 -8 -12 -17 -15 -10 -4 -29 -16 -43 -27 -14
-11 -19 -18 -12 -14 6 3 12 2 12 -3 0 -5 8 -12 18 -14 18 -5 37 1 82 27 l25
15 -27 0 c-16 0 -28 5 -28 10 0 7 17 8 48 4 26 -3 58 -6 72 -6 13 0 29 -7 35
-15 9 -12 17 -9 49 16 21 17 39 31 40 31 1 0 2 -9 3 -19 1 -13 -3 -18 -12 -15
-7 3 -16 1 -20 -5 -3 -6 -1 -11 5 -11 6 0 9 -4 5 -9 -6 -11 28 -7 47 5 7 4 8
3 4 -4 -4 -7 -2 -12 4 -12 6 0 8 -4 5 -10 -3 -5 -11 -10 -16 -10 -6 0 -7 5 -4
10 3 6 2 10 -3 10 -5 0 -17 -15 -26 -32 -8 -18 -16 -26 -16 -18 0 9 6 22 13
29 6 8 0 6 -15 -4 -19 -11 -28 -13 -28 -5 0 7 -5 6 -15 -4 -8 -8 -15 -22 -15
-32 0 -16 1 -16 18 -1 23 21 36 22 28 2 -9 -24 24 -14 57 17 l29 27 18 -21
c11 -15 19 -18 24 -10 4 7 3 12 -2 12 -6 0 -8 9 -5 20 6 21 12 24 37 14 21 -8
21 -24 0 -24 -8 0 -13 -4 -9 -9 7 -12 -29 -33 -39 -24 -3 3 -6 1 -6 -5 0 -7
-4 -12 -10 -12 -5 0 -7 7 -4 15 4 9 0 15 -10 15 -9 0 -16 -7 -16 -15 0 -16
-63 -37 -68 -23 -6 15 -31 8 -53 -14 l-22 -23 7 28 c7 32 -4 36 -22 7 -7 -11
-18 -20 -25 -20 -6 0 -24 -6 -39 -14 -24 -13 -26 -12 -20 2 5 15 4 15 -12 3
-16 -13 -17 -12 -11 11 9 35 -14 41 -56 15 -25 -17 -29 -23 -16 -25 19 -4 21
-11 7 -32 -8 -13 -10 -13 -10 1 0 19 -25 32 -43 24 -7 -3 -2 2 11 11 12 9 22
20 22 25 0 11 -30 0 -52 -19 -10 -8 -18 -11 -18 -6 0 5 -5 2 -11 -6 -8 -12
-12 -12 -16 -2 -3 9 -12 4 -29 -15 -26 -30 -34 -20 -9 13 8 10 14 24 15 29 0
6 -5 3 -10 -5 -9 -13 -12 -12 -25 4 -8 11 -18 16 -22 12 -5 -4 0 -13 10 -20
17 -13 25 -32 8 -21 -5 3 -12 1 -16 -5 -3 -5 -1 -10 6 -10 18 0 -18 -37 -42
-43 -10 -3 -19 -1 -19 4 0 5 6 9 14 9 22 0 28 17 15 42 -9 16 -14 19 -17 9 -2
-7 2 -18 9 -23 11 -8 10 -9 -3 -4 -10 3 -21 -1 -26 -11 -6 -11 -11 -12 -16 -4
-4 6 -2 11 3 11 6 0 11 10 11 23 -1 20 -2 20 -11 5 -5 -10 -15 -18 -21 -18 -9
0 -9 3 0 12 15 15 15 28 1 28 -5 0 -8 -4 -5 -9 3 -5 -5 -16 -19 -25 -22 -14
-25 -14 -25 -2 0 10 -6 13 -16 9 -11 -4 -12 -8 -4 -13 14 -9 5 -30 -13 -30 -7
0 -18 9 -25 21 -12 18 -15 19 -35 7 -31 -21 -57 -29 -57 -19 0 5 15 16 33 24
36 17 77 57 59 57 -6 0 -17 -7 -25 -15 -12 -11 -17 -12 -20 -2 -3 7 -6 5 -6
-5 -1 -10 -8 -18 -17 -18 -8 0 -30 -11 -48 -25 -37 -29 -54 -31 -62 -10 -6 14
-8 13 -47 -21 -7 -6 -20 -11 -30 -11 -16 0 -16 1 0 19 9 10 22 17 28 14 6 -2
17 5 24 15 6 11 17 17 23 13 7 -5 8 -3 3 6 -5 8 -3 11 6 8 8 -3 13 -13 13 -22
-3 -29 13 -17 20 17 3 17 16 40 29 49 12 9 19 20 15 24 -4 4 -21 -8 -37 -25
-17 -18 -39 -33 -50 -34 -11 0 -18 -4 -15 -8 5 -8 -25 -34 -32 -27 -2 3 -1 16
4 29 4 13 7 34 7 45 -2 16 4 22 22 22 13 0 26 -4 29 -9 6 -10 34 0 52 18 15
15 36 18 28 4 -3 -5 1 -12 10 -15 8 -3 13 -2 10 2 -3 4 4 14 15 21 18 11 20
10 17 -7 -2 -10 2 -18 7 -18 6 1 9 6 9 13 -1 6 11 14 27 17 21 4 29 11 29 26
0 16 7 20 30 20 30 0 40 14 18 24 -7 3 -1 4 15 2 15 -2 30 1 33 6 3 4 2 8 -3
7 -24 -4 -25 3 -3 16 32 18 30 18 46 -2z m473 14 c-2 -1 -13 -9 -24 -17 -19
-14 -19 -14 -6 3 7 9 18 17 24 17 6 0 8 -1 6 -3z m-109 -37 c0 -5 -4 -10 -10
-10 -5 0 -10 5 -10 10 0 6 5 10 10 10 6 0 10 -4 10 -10z m60 -4 c0 -2 -7 -7
-16 -10 -8 -3 -12 -2 -9 4 6 10 25 14 25 6z m-355 -35 c-3 -6 -11 -11 -17 -11
-6 0 -6 6 2 15 14 17 26 13 15 -4z m-220 -12 c-10 -15 -25 -10 -19 6 4 8 10
12 15 9 5 -3 7 -10 4 -15z m410 11 c-3 -5 -11 -10 -16 -10 -6 0 -7 5 -4 10 3
6 11 10 16 10 6 0 7 -4 4 -10z m-445 -10 c0 -5 -4 -10 -10 -10 -5 0 -10 5 -10
10 0 6 5 10 10 10 6 0 10 -4 10 -10z m790 -5 c0 -8 -4 -15 -10 -15 -5 0 -7 7
-4 15 4 8 8 15 10 15 2 0 4 -7 4 -15z m-1030 -75 c0 -5 -7 -10 -15 -10 -18 0
-20 -16 -2 -23 9 -4 9 -6 -1 -6 -19 -1 -27 30 -11 40 19 12 29 11 29 -1z m702
-47 c-5 -25 -6 -25 -13 -8 -11 29 -10 35 5 35 9 0 12 -8 8 -27z m793 -13 c3
-6 -1 -7 -9 -4 -18 7 -21 14 -7 14 6 0 13 -4 16 -10z m-920 -10 c3 -5 -1 -10
-10 -10 -9 0 -13 5 -10 10 3 6 8 10 10 10 2 0 7 -4 10 -10z m-344 -41 c-26
-22 -35 -20 -25 5 3 9 16 16 28 16 21 -1 21 -1 -3 -21z m81 -1 c-6 -6 -15 -8
-19 -4 -4 4 -1 11 7 16 19 12 27 3 12 -12z m-162 -12 c8 -3 4 -4 -10 -1 -14 2
-32 -2 -42 -12 -10 -9 -18 -11 -18 -5 0 7 -7 9 -17 5 -11 -4 -14 -3 -9 5 9 14
69 31 76 22 3 -4 12 -10 20 -14z m-107 -7 c-4 -12 0 -25 8 -30 11 -7 11 -9 -3
-9 -9 0 -24 7 -32 16 -20 19 -20 25 -2 18 7 -3 16 2 19 10 9 23 16 19 10 -5z
m210 4 c-7 -2 -9 -11 -6 -19 3 -8 1 -14 -5 -14 -11 0 -11 18 2 38 4 7 11 10
15 6 3 -4 1 -9 -6 -11z m-303 -2 c0 -12 -20 -25 -27 -18 -7 7 6 27 18 27 5 0
9 -4 9 -9z m48 -38 c2 -12 -4 -23 -13 -27 -13 -5 -14 -2 -4 15 6 11 8 23 5 27
-3 3 -6 0 -6 -7 0 -7 -5 -9 -10 -6 -13 8 -2 27 13 22 7 -2 13 -13 15 -24z
m119 5 c-3 -8 -6 -5 -6 6 -1 11 2 17 5 13 3 -3 4 -12 1 -19z m-21 -13 c17 -16
14 -18 -10 -9 -9 3 -16 10 -16 15 0 13 9 11 26 -6z m-71 -5 c3 -5 1 -10 -4
-10 -6 0 -11 5 -11 10 0 6 2 10 4 10 3 0 8 -4 11 -10z m-115 -24 c0 -2 -8 -10
-17 -17 -16 -13 -17 -12 -4 4 13 16 21 21 21 13z m110 -28 c0 -16 -3 -19 -11
-11 -6 6 -8 16 -5 22 11 17 16 13 16 -11z m-30 8 c0 -3 -4 -8 -10 -11 -5 -3
-10 -1 -10 4 0 6 5 11 10 11 6 0 10 -2 10 -4z m-65 -25 c-3 -6 -11 -11 -16
-11 -5 0 -4 6 3 14 14 16 24 13 13 -3z m-85 -121 c0 -19 -18 -19 -23 -1 -3 14
-1 18 9 14 8 -3 14 -9 14 -13z m-48 -8 c-7 -2 -9 -9 -6 -14 4 -7 2 -8 -4 -4
-7 4 -12 3 -12 -3 0 -6 -10 -16 -22 -22 -22 -12 -22 -11 -8 7 38 47 44 53 54
47 6 -4 6 -8 -2 -11z m-119 -29 c-7 -21 -43 -52 -60 -53 -15 0 -5 42 15 58 24
19 53 16 45 -5z m-111 -75 c-8 -8 -9 -4 -5 13 4 13 8 18 11 10 2 -7 -1 -18 -6
-23z"/>
<path d="M1135 960 c-3 -5 -1 -10 4 -10 6 0 11 5 11 10 0 6 -2 10 -4 10 -3 0
-8 -4 -11 -10z"/>
<path d="M1105 660 c-3 -5 3 -10 15 -10 12 0 18 5 15 10 -3 6 -10 10 -15 10
-5 0 -12 -4 -15 -10z"/>
<path d="M1090 629 c0 -5 5 -7 10 -4 6 3 10 8 10 11 0 2 -4 4 -10 4 -5 0 -10
-5 -10 -11z"/>
<path d="M936 580 c-16 -16 -17 -22 -6 -35 7 -8 20 -15 30 -15 20 0 34 26 20
35 -5 3 -7 12 -3 20 8 21 -18 18 -41 -5z"/>
<path d="M887 562 c-10 -10 -17 -24 -17 -32 0 -7 10 -1 21 14 24 31 21 45 -4
18z"/>
<path d="M1350 569 c0 -5 -5 -7 -10 -4 -6 3 -17 -1 -26 -9 -9 -9 -21 -13 -27
-10 -8 5 -9 4 -2 -3 15 -15 55 -26 55 -15 0 5 15 13 34 16 19 4 39 13 46 21
14 17 0 21 -17 4 -8 -8 -13 -8 -17 0 -9 14 -36 14 -36 0z"/>
<path d="M1464 565 c-18 -13 -18 -14 4 -8 12 3 25 9 28 14 8 14 -10 11 -32 -6z"/>
<path d="M1151 553 c-1 -6 4 -15 10 -19 13 -8 36 13 25 23 -4 4 -11 1 -15 -6
-7 -11 -10 -11 -14 0 -3 9 -6 10 -6 2z"/>
<path d="M1125 540 c3 -5 8 -10 11 -10 2 0 4 5 4 10 0 6 -5 10 -11 10 -5 0 -7
-4 -4 -10z"/>
<path d="M1215 540 c-3 -5 -2 -10 4 -10 5 0 13 5 16 10 3 6 2 10 -4 10 -5 0
-13 -4 -16 -10z"/>
<path d="M1417 544 c-8 -8 1 -24 12 -24 4 0 8 7 8 15 0 16 -9 20 -20 9z"/>
<path d="M1088 523 c-14 -4 -33 -31 -26 -39 2 -1 16 9 31 22 28 24 27 26 -5
17z"/>
<path d="M631 503 c-1 -6 3 -14 7 -17 12 -7 38 12 29 21 -5 4 -12 1 -16 -6 -7
-11 -10 -11 -14 0 -3 9 -6 10 -6 2z"/>
<path d="M752 496 c-12 -7 -25 -16 -27 -20 -3 -3 -2 -4 2 -1 3 3 11 1 17 -4 7
-6 17 0 29 15 20 26 14 29 -21 10z"/>
<path d="M870 501 c0 -5 5 -13 10 -16 6 -3 10 -2 10 4 0 5 -4 13 -10 16 -5 3
-10 2 -10 -4z"/>
<path d="M1225 500 c4 -6 11 -8 16 -5 14 9 11 15 -7 15 -8 0 -12 -5 -9 -10z"/>
<path d="M1333 503 c-22 -8 -14 -20 10 -17 12 1 25 3 30 3 4 1 7 6 7 12 0 8
-4 8 -14 0 -8 -7 -16 -8 -18 -3 -1 5 -9 7 -15 5z"/>
<path d="M835 460 c-3 -5 -1 -10 4 -10 6 0 11 5 11 10 0 6 -2 10 -4 10 -3 0
-8 -4 -11 -10z"/>
<path d="M215 89 c-4 -6 -5 -13 -2 -16 7 -7 27 6 27 18 0 12 -17 12 -25 -2z"/>
<path d="M3441 1647 c3 -4 23 -14 45 -23 33 -13 37 -14 24 -1 -14 15 -82 37
-69 24z"/>
<path d="M3560 1604 c0 -2 9 -8 20 -14 11 -6 20 -7 20 -2 0 6 -9 12 -20 15
-11 3 -20 3 -20 1z"/>
<path d="M1015 1500 c-4 -6 5 -10 19 -10 14 0 26 5 26 10 0 6 -9 10 -19 10
-11 0 -23 -4 -26 -10z"/>
<path d="M0 1430 c0 -29 4 -40 15 -40 8 0 15 5 15 11 0 7 11 8 30 4 16 -4 34
-4 40 0 14 9 -11 45 -32 45 -10 0 -18 5 -18 10 0 6 -11 10 -25 10 -22 0 -25
-4 -25 -40z"/>
<path d="M958 1430 c-3 -18 0 -30 7 -30 6 0 27 14 45 30 l34 30 -41 0 c-38 0
-41 -2 -45 -30z"/>
<path d="M3940 1355 c0 -8 5 -15 10 -15 6 0 10 7 10 15 0 8 -4 15 -10 15 -5 0
-10 -7 -10 -15z"/>
<path d="M1175 1254 c-44 -19 -88 -37 -97 -40 -21 -7 -23 -33 -5 -58 12 -16
17 -14 62 29 28 25 67 55 88 67 20 12 37 25 37 30 0 4 -1 8 -2 7 -2 0 -39 -16
-83 -35z"/>
<path d="M2001 1234 c0 -11 3 -14 6 -6 3 7 2 16 -1 19 -3 4 -6 -2 -5 -13z"/>
<path d="M963 1133 c-10 -10 -14 -15 -8 -11 6 4 22 12 36 17 15 6 18 10 8 10
-9 1 -25 -7 -36 -16z"/>
<path d="M927 1083 c-4 -3 -7 -11 -7 -17 0 -6 5 -5 12 2 6 6 9 14 7 17 -3 3
-9 2 -12 -2z"/>
<path d="M910 995 c-8 -9 -8 -15 -2 -15 12 0 26 19 19 26 -2 2 -10 -2 -17 -11z"/>
<path d="M985 990 c3 -5 8 -10 11 -10 2 0 4 5 4 10 0 6 -5 10 -11 10 -5 0 -7
-4 -4 -10z"/>
<path d="M1042 995 c4 -4 3 -14 -3 -22 -7 -8 -8 -13 -1 -13 15 0 23 28 9 36
-7 4 -9 4 -5 -1z"/>
<path d="M0 760 c0 -101 2 -110 21 -121 23 -12 86 -4 107 13 18 15 6 66 -34
142 -31 58 -51 75 -86 76 -5 0 -8 -49 -8 -110z"/>
<path d="M995 830 c-3 -5 -1 -10 4 -10 6 0 11 5 11 10 0 6 -2 10 -4 10 -3 0
-8 -4 -11 -10z"/>
<path d="M858 786 c-24 -18 -23 -23 5 -23 15 0 23 6 24 18 2 22 -5 23 -29 5z"/>
<path d="M821 724 c0 -11 3 -14 6 -6 3 7 2 16 -1 19 -3 4 -6 -2 -5 -13z"/>
<path d="M2686 621 c-4 -5 -2 -12 3 -15 5 -4 12 -2 15 3 4 5 2 12 -3 15 -5 4
-12 2 -15 -3z"/>
<path d="M695 609 c-12 -19 5 -23 22 -6 16 16 16 17 1 17 -9 0 -20 -5 -23 -11z"/>
<path d="M365 330 c-3 -5 -1 -10 4 -10 6 0 11 5 11 10 0 6 -2 10 -4 10 -3 0
-8 -4 -11 -10z"/>
<path d="M275 249 c-9 -17 -15 -35 -13 -41 2 -6 11 8 20 31 19 48 15 54 -7 10z"/>
<path d="M271 174 c0 -11 3 -14 6 -6 3 7 2 16 -1 19 -3 4 -6 -2 -5 -13z"/>
<path d="M215 170 c-3 -5 -1 -10 4 -10 6 0 11 5 11 10 0 6 -2 10 -4 10 -3 0
-8 -4 -11 -10z"/>
<path d="M175 130 c-8 -13 5 -13 25 0 13 8 13 10 -2 10 -9 0 -20 -4 -23 -10z"/>
<path d="M66 73 c-6 -14 -5 -15 5 -6 7 7 10 15 7 18 -3 3 -9 -2 -12 -12z"/>
<path d="M0 72 c0 -6 5 -14 10 -17 8 -5 7 -11 -1 -21 -10 -12 -9 -17 1 -27 7
-7 10 -7 7 -2 -3 6 -2 17 4 25 7 12 9 10 9 -7 0 -16 6 -23 20 -23 17 0 19 3
11 17 -15 26 -61 67 -61 55z"/>
<path d="M90 35 c-8 -9 -8 -15 -2 -15 12 0 26 19 19 26 -2 2 -10 -2 -17 -11z"/>
</g>
</svg>
